<?xml version="1.0" encoding="utf-8"?>
<!-- Generator: Adobe Illustrator 16.0.3, SVG Export Plug-In . SVG Version: 6.00 Build 0)  -->
<!DOCTYPE svg PUBLIC "-//W3C//DTD SVG 1.1//EN" "http://www.w3.org/Graphics/SVG/1.1/DTD/svg11.dtd">
<svg version="1.1" id="Layer_1" xmlns="http://www.w3.org/2000/svg" xmlns:xlink="http://www.w3.org/1999/xlink" x="0px" y="0px"
	 width="910px" height="570px" viewBox="-55.5 -56.75 910 570" enable-background="new -55.5 -56.75 910 570" xml:space="preserve">
<g>
	<g>
		<path fill="#FFFFFF" d="M429.042,310.057c-0.737,0.137-0.599,1.147-1.047,1.569c0.787,19.062,0.072,42.94,1.061,58.606
			c16.037-1.924,34.185,1.67,45.521-4.194c14.326-7.416,19.021-29.132,9.412-42.912
			C474.071,308.907,454.027,309.352,429.042,310.057z"/>
		<path fill="#FFFFFF" d="M-123.483-125.73v710.969H925.491V-125.73H-123.483z M221.367,305.527
			c-22.726,0.852-52.186-1.473-74.305,0.508c-1.169,43.64,1.254,95.667-0.551,141.283c-20.987,1.475-46.773,0.312-73.256-1.062
			c-1.209-45.875-0.159-94.01-0.496-140.758c-23.23-1.723-46.044-1.675-70.641-2.63c-1.174-23.929-0.45-47.812,0.537-70.642
			c71.609-1.082,150.648,0.172,218.726-1.006C221.356,255.662,221.398,282.82,221.367,305.527z M222.217,219.545
			c-25.805,0.845-54.289-0.153-81.108-0.036c-1.561-10.731-0.172-23.87-0.742-36.624c-20.712-1.316-41.841,0.469-59.658-0.691
			c-1.189,12.309-0.083,25.058,0.219,36.629c-25.134,0.69-53.142-0.264-79.538-0.048C1.068,148.236,1.171,78.114,1.174,7.896
			C1.145,7.001,1.553,6.539,2.21,6.321c11.644,0.14,25.493-0.415,38.721-0.233c12.932,0.178,26.46-0.479,37.164,1.871
			c0.713,36.918,0.325,64.408,1.659,102.552c21.514,1.411,43.161-0.786,59.655,0.166c1.373-32.801-0.936-69.238,0.437-102.042
			c25.598-0.447,56.125-0.824,82.149-1.014C222.414,79.253,223.271,147.951,222.217,219.545z M240.832,7.506
			c17.602,1.07,52.23-0.588,78.494,0.576c2.761,15.842,1.772,34.017,1.879,51.793c0.314,52.638,2.532,108.792,2.008,160.633
			c-27.096-0.128-54.357-0.087-81.112-0.561c-1.627-69.246-1.022-140.749-1.787-210.87C240.267,8.338,240.223,7.598,240.832,7.506z
			 M326.14,447.072c-29.949,1.688-50.523-0.082-82.674,0.496c-1.275-68.137-1.75-146.901-1.288-215.061
			c0.289-0.756,0.809-1.283,1.561-1.578c27.781,0.65,48.447-0.061,79.539,0.045C325.001,300.014,326.74,377.602,326.14,447.072z
			 M367.6,28.843c18.552-15.397,46.349-26.975,79.892-28.736c26.398-1.387,50.744,6.935,67.612,18.434
			c6.334,4.316,13.15,7.988,16.815,11.935c2.119,2.282,6.457,9.369,6.345,10.951c-0.26,3.634-9.678,8.062-14.06,11.598
			c-10.566,8.525-17.737,13.664-28.647,22.149c-3.711,2.887-10.867,10.304-14.068,10.026c-4.62-0.402-5.785-4.528-8.931-5.702
			c-14.074-5.263-31.195-0.545-40.775,6.523c-8.576,6.327-14.929,17.08-16.061,27.306c-2.832,25.577,12.067,43.149,36.898,44.782
			c11.92,0.78,17.521-3.258,22.956-11.653c-9.473-0.939-23.747,1.639-35.063-0.836c-0.002-18.726-0.956-33.961,0.735-51.81
			c35.84,0.668,76.808,1.095,111.461,0.38c5.579,7.193,6.242,13.966,5.376,24.038c-3.031,35.259-19.423,67.27-42.402,84.501
			c-7.682,5.759-18.104,11.477-28.691,14.823c-10.698,3.38-23.29,6.716-35.017,7.012c-58.481,1.469-106.014-33.174-116.146-83.551
			C326.869,96.465,341.478,50.525,367.6,28.843z M574.527,389.043c-11.885,37.045-43.953,56.021-88.942,59.67
			c-21.351,1.732-44.494,0.258-67.503,0.016c-23.117-0.245-46.493-2.516-69.071-3.125c-1.767-69.383-3.374-142.5-4.752-212.445
			c-0.048-0.746-0.09-1.486,0.52-1.573c32.716-0.26,68.607,0.854,102.04,1.024c17.377,0.092,34.668-1.246,49.709,0.515
			c15.114,1.771,27.415,7.394,39.77,11.504c12.99,10.063,26.363,19.704,34.02,34.006
			C584.972,306.01,586.064,353.072,574.527,389.043z M788.161,305.654c-34.201,1.875-70.519,0.834-107.27,0.642
			c-0.876,1.739-0.998,8.55-0.452,11.519c34.341,1.733,74.823,0.377,107.28,1.449c-0.718,11.284,1.086,28.555-0.272,41.862
			c-33.485,0.824-72.158-0.192-106.747,0.115c-1.127,2.877-0.185,7.795-0.454,11.516c32.335,1.066,75.939-0.5,107.271-0.118
			c0.415,19.143,0.173,49.729-0.086,73.258c-31.469,1.975-59.527,0.881-93.659,1.084c-34.362,0.207-55.943,0.319-90.529-0.503
			c-1.645-48.184-1.687-106.653-2.064-170.054c-0.092-15.253-0.611-31.02,0.257-44.48c0.288-0.754,0.807-1.281,1.559-1.576
			c57.72-0.262,123.183,0.184,185.232-1.112C788.706,255.215,788.111,280.118,788.161,305.654z M786.819,217.735
			c-27.037-0.186-55.459,1.027-81.63-0.036c-3.035-10.501,0.292-26.696-0.766-40.287c-17.671-0.812-38.831-0.577-56.512,0.337
			c-0.805,14.86,0.662,27.376-1.329,40.3c-26.51,0.158-53.022,0.319-79.535,0.477c-2.858-14.534-0.711-31.351-0.813-48.661
			c-0.104-17.057,0.481-35.489,0.743-50.761c0.652-38.468,0.948-73.038,1.409-114.083c28.116,0.798,51.564-0.414,80.06-0.48
			c2.275,33.46-0.469,69.376,0.096,103.609c14.232,0.35,37.109-0.505,55.99-0.334c1.908-32.84-0.521-74.064,2.511-105.194
			c30.37,0.097,53.767-0.495,83.191-1.021c1.684,60.139-0.616,128.079-0.938,192.571
			C789.256,202.149,789.79,210.573,786.819,217.735z"/>
	</g>
	<g>
		<g>
			<g>
				<path fill="#010101" d="M453.256,7.956c20.411,0,41.312,6.267,57.343,17.196c1.965,1.338,3.929,2.59,5.827,3.8
					c3.806,2.425,7.741,4.933,9.631,6.968c0.673,0.723,1.906,2.559,2.916,4.245c-1.256,0.885-2.779,1.86-3.881,2.564
					c-2.06,1.317-4.188,2.679-5.911,4.069c-6.408,5.17-11.61,9.124-17.119,13.31c-3.53,2.683-7.181,5.457-11.417,8.751
					c-1.167,0.907-2.479,2.065-3.868,3.292c-1.349,1.191-3.537,3.124-5.153,4.328c-0.049-0.05-0.097-0.099-0.143-0.145
					c-1.269-1.288-3.187-3.234-6.121-4.33c-4.888-1.828-10.235-2.755-15.893-2.755c-11.366,0-23.795,3.959-32.434,10.333
					c-10.336,7.625-17.897,20.525-19.263,32.863c-1.637,14.781,1.816,27.748,9.986,37.499c8.058,9.616,19.932,15.199,34.342,16.147
					c1.135,0.074,2.247,0.112,3.304,0.112c14.908,0,21.959-7.785,26.89-15.4l7.131-11.015l-13.058-1.293
					c-1.731-0.171-3.669-0.255-5.926-0.255c-2.714,0-5.501,0.116-8.451,0.239c-2.948,0.123-5.997,0.25-8.948,0.25
					c-1.657,0-3.172-0.04-4.566-0.122c-0.027-2.638-0.065-5.212-0.103-7.74c-0.144-9.784-0.281-19.135,0.282-28.923
					c23.962,0.414,44.978,0.616,64.044,0.616c12.909,0,24.909-0.096,35.748-0.287c1.914,3.736,2.297,7.968,1.669,15.27
					c-2.799,32.55-17.831,62.739-39.23,78.785c-7.741,5.804-17.328,10.759-26.303,13.595c-8.587,2.713-21.33,6.353-32.808,6.644
					c-1.121,0.028-2.257,0.042-3.373,0.042c-26.118,0-50.013-7.507-69.102-21.711c-18.827-14.008-31.146-33.187-35.626-55.462
					c-8.023-39.89,4.189-83.812,29.037-104.438c19.04-15.802,45.747-25.356,75.202-26.903C449.68,8.003,451.479,7.956,453.256,7.956
					 M453.256-0.044c-1.907,0-3.833,0.05-5.765,0.151c-33.543,1.761-61.34,13.339-79.892,28.736
					c-26.122,21.682-40.73,67.622-31.771,112.171c9.925,49.347,55.734,83.596,112.571,83.596c1.186,0,2.379-0.015,3.574-0.045
					c11.727-0.297,24.318-3.633,35.017-7.013c10.588-3.346,21.01-9.063,28.691-14.823c22.979-17.23,39.371-49.242,42.402-84.5
					c0.866-10.072,0.203-16.845-5.376-24.038c-12.68,0.262-26.201,0.37-40.012,0.37c-23.932,0-48.724-0.327-71.449-0.75
					c-1.691,17.849-0.737,33.084-0.735,51.81c3.928,0.859,8.211,1.109,12.527,1.109c6.033,0,12.128-0.489,17.399-0.489
					c1.822,0,3.548,0.059,5.137,0.216c-4.994,7.714-10.127,11.748-20.174,11.748c-0.888,0-1.814-0.031-2.782-0.095
					c-24.831-1.633-39.73-19.205-36.898-44.782c1.132-10.226,7.484-20.979,16.061-27.306c6.73-4.966,17.182-8.771,27.685-8.771
					c4.446,0,8.905,0.683,13.091,2.248c3.146,1.174,4.311,5.3,8.931,5.702c0.059,0.005,0.118,0.008,0.18,0.008
					c3.283,0,10.246-7.2,13.889-10.034c10.91-8.485,18.081-13.624,28.647-22.149c4.382-3.536,13.8-7.964,14.06-11.598
					c0.112-1.582-4.226-8.669-6.345-10.951c-3.665-3.947-10.481-7.619-16.815-11.935C499.47,7.883,477.418-0.044,453.256-0.044
					L453.256-0.044z"/>
			</g>
			<g>
				<path fill="#010101" d="M35.205,14.051c2.003,0,3.84,0.012,5.616,0.036c2.561,0.036,5.177,0.039,7.428,0.039l1.168,0h1.163
					c6.373,0,13.377,0,19.636,0.676c0.19,11.574,0.284,22.336,0.375,32.798c0.177,20.375,0.344,39.619,1.168,63.191l0.253,7.229
					l7.219,0.474c5.18,0.34,10.772,0.505,17.097,0.505c6.188,0,12.21-0.154,18.034-0.304c5.341-0.137,10.386-0.266,15.137-0.266
					c3.624,0,6.715,0.077,9.45,0.235l8.114,0.468l0.34-8.121c0.696-16.622,0.456-34.333,0.225-51.462
					c-0.193-14.316-0.393-29.045-0.039-43.044c21.167-0.345,45.026-0.64,66.456-0.821c0.069,11.041,0.147,22.018,0.225,32.95
					c0.393,55.542,0.765,108.143,0.055,163.112c-4.936,0.095-10.288,0.142-16.179,0.142c-8.617,0-17.541-0.099-26.171-0.194
					c-7.745-0.085-15.727-0.174-23.538-0.191c-0.165-4.094-0.09-8.523-0.013-13.113c0.086-5.159,0.176-10.494-0.063-15.861
					l-0.321-7.171l-7.164-0.456c-5.654-0.359-11.74-0.527-19.153-0.527c-4.519,0-9.017,0.062-13.366,0.121
					c-4.283,0.058-8.327,0.113-12.33,0.113c-5.928,0-10.63-0.126-14.797-0.397l-7.737-0.504l-0.746,7.718
					c-0.946,9.798-0.536,19.51-0.138,28.902c0.009,0.223,0.019,0.444,0.028,0.665c-3.996,0.058-8.289,0.086-12.957,0.086
					c-8.105,0-16.54-0.084-24.697-0.167c-8.268-0.083-16.817-0.168-25.148-0.168c-0.16,0-0.32,0-0.479,0
					c-0.225-54.475-0.207-109.469-0.19-162.729c0.003-11.226,0.007-22.451,0.008-33.678c3.54-0.021,7.183-0.076,10.991-0.133
					C25.094,14.127,30.191,14.051,35.205,14.051 M35.205,6.051c-9.907,0-19.934,0.293-28.923,0.293
					c-1.383,0-2.742-0.007-4.072-0.023c-0.657,0.218-1.065,0.68-1.036,1.575C1.171,78.114,1.068,148.236,1.39,218.775
					c2.8-0.023,5.613-0.033,8.444-0.033c16.533,0,33.507,0.335,49.845,0.335c7.237,0,14.351-0.065,21.248-0.255
					c-0.302-11.57-1.408-24.319-0.219-36.629c4.883,0.318,10.014,0.415,15.317,0.415c8.246,0,16.907-0.234,25.696-0.234
					c6.186,0,12.435,0.116,18.646,0.511c0.57,12.754-0.819,25.893,0.742,36.624c1.513-0.006,3.029-0.01,4.551-0.01
					c17.293,0,35.169,0.389,52.485,0.389c8.189,0,16.253-0.087,24.072-0.343c1.054-71.594,0.197-140.292-0.222-211.924
					c-26.024,0.19-56.551,0.567-82.149,1.014c-1.373,32.804,0.936,69.241-0.437,102.042c-3.131-0.181-6.445-0.248-9.911-0.248
					c-10.087,0-21.442,0.57-33.17,0.57c-5.473,0-11.028-0.124-16.574-0.488C78.42,72.367,78.808,44.877,78.095,7.959
					C70.037,6.19,60.379,6.125,50.58,6.125c-0.776,0-1.553,0-2.331,0c-2.445,0-4.893-0.004-7.318-0.038
					C39.032,6.062,37.122,6.051,35.205,6.051L35.205,6.051z"/>
			</g>
			<g>
				<path fill="#010101" d="M782.436,9.745c0.834,37.86,0.218,79.193-0.381,119.25c-0.32,21.462-0.651,43.655-0.759,65.137
					c-0.006,1.147,0,2.304,0.006,3.465c0.021,4.304,0.043,8.446-0.539,12.118c-8.388,0-16.995,0.109-25.32,0.213
					c-8.302,0.104-16.887,0.212-25.199,0.212c-6.7,0-12.724-0.072-18.234-0.218c-0.291-4.332-0.027-9.506,0.23-14.564
					c0.312-6.124,0.636-12.455,0.16-18.566l-0.548-7.046l-7.061-0.325c-7.287-0.335-15.321-0.505-23.879-0.505
					c-11.177,0-22.73,0.292-33.413,0.844l-7.187,0.372l-0.389,7.185c-0.334,6.159-0.293,11.819-0.254,17.293
					c0.038,5.337,0.074,10.47-0.266,15.482l-26.919,0.162l-38.504,0.23c-0.69-7.438-0.401-15.621-0.099-24.168
					c0.189-5.347,0.385-10.875,0.352-16.499c-0.074-12.193,0.202-24.872,0.469-37.134c0.102-4.661,0.2-9.174,0.273-13.443
					c0.5-29.512,0.795-57.103,1.107-86.312c0.068-6.447,0.139-13.008,0.213-19.729c3.921,0.062,7.941,0.094,12.138,0.094
					c10.174,0,19.799-0.178,29.989-0.366c7.262-0.134,14.711-0.271,22.466-0.341c0.809,17.615,0.411,36.107,0.025,54.066
					c-0.294,13.708-0.599,27.882-0.372,41.631l0.127,7.677l7.676,0.189c2.392,0.059,5.104,0.087,8.291,0.087
					c6.019,0,12.742-0.102,19.86-0.209c7.535-0.114,15.328-0.232,22.696-0.232c1.783,0,3.541,0.007,5.267,0.022l7.617,0.069
					l0.441-7.605c0.858-14.771,0.854-31.361,0.848-47.405c-0.005-17.164-0.011-34.832,1.045-50.243
					c21.683-0.008,39.729-0.351,60.584-0.747C777.443,9.839,779.921,9.792,782.436,9.745 M790.234,1.601
					c-27.273,0.487-49.364,1.031-76.633,1.031c-2.151,0-4.338-0.003-6.559-0.01c-3.031,31.13-0.603,72.354-2.511,105.194
					c-1.749-0.016-3.531-0.023-5.339-0.023c-14.331,0-30.187,0.442-42.557,0.442c-2.913,0-5.634-0.024-8.095-0.085
					c-0.564-34.233,2.18-70.149-0.096-103.609c-21.486,0.05-40.1,0.751-60.012,0.751c-6.496,0-13.132-0.075-20.048-0.271
					c-0.461,41.045-0.757,75.615-1.409,114.083c-0.262,15.272-0.847,33.705-0.743,50.761c0.103,17.31-2.045,34.127,0.813,48.66
					c26.513-0.157,53.025-0.318,79.535-0.477c1.991-12.924,0.524-25.439,1.329-40.3c10.281-0.532,21.736-0.833,33-0.833
					c8.107,0,16.116,0.157,23.512,0.497c1.058,13.591-2.27,29.785,0.766,40.287c8.169,0.332,16.557,0.441,25.054,0.441
					c16.727,0,33.874-0.426,50.6-0.426c1.999,0,3.991,0.006,5.977,0.02c2.971-7.162,2.437-15.586,2.477-23.562
					C789.618,129.68,791.918,61.74,790.234,1.601L790.234,1.601z"/>
			</g>
			<g>
				<path fill="#010101" d="M295.2,15.646c6.558,0,12.154,0.063,17.14,0.196c1.08,9.865,0.994,20.611,0.905,31.869
					c-0.032,3.999-0.064,8.133-0.04,12.212c0.129,21.55,0.583,44.056,1.022,65.82c0.582,28.809,1.181,58.515,1.045,86.732
					c-4.046-0.015-8.093-0.028-12.141-0.041c-17.511-0.056-35.544-0.113-53.204-0.363c-0.854-40.444-0.998-82.171-1.137-122.606
					c-0.083-24.195-0.17-49.142-0.407-73.668c2.891,0.061,6.186,0.089,9.978,0.089c5.347,0,11.073-0.055,17.135-0.113
					C281.938,15.71,288.599,15.646,295.2,15.646 M240.832,7.506c-0.609,0.092-0.565,0.832-0.518,1.571
					c0.765,70.121,0.16,141.624,1.787,210.87c26.755,0.474,54.016,0.433,81.112,0.561c0.524-51.841-1.693-107.995-2.008-160.633
					c-0.106-17.776,0.882-35.951-1.879-51.793c-7.552-0.335-15.794-0.436-24.126-0.436c-12.802,0-25.812,0.239-36.839,0.239
					C251.607,7.885,245.596,7.795,240.832,7.506L240.832,7.506z"/>
			</g>
			<g>
				<path fill="#010101" d="M213.375,239.349c-0.004,9.255-0.002,18.774,0.001,28.194c0.003,10.336,0.006,20.551-0.001,30.162
					c-1.242,0.012-2.534,0.018-3.881,0.018c-6.208,0-12.877-0.127-19.327-0.251c-6.678-0.128-13.583-0.261-20.246-0.261
					c-9.56,0-17.05,0.272-23.572,0.856l-7.093,0.635l-0.19,7.119c-0.539,20.101-0.326,41.426-0.101,64.003
					c0.232,23.338,0.473,47.392-0.196,69.909c-4.429,0.182-9.199,0.271-14.417,0.271c-13.576,0-28.61-0.628-43.275-1.359
					c-0.55-26.05-0.44-53.106-0.334-79.35c0.071-17.709,0.145-36.021,0.017-53.854l-0.053-7.375l-7.355-0.546
					c-15.237-1.13-29.979-1.499-45.588-1.892c-5.862-0.146-11.867-0.298-17.955-0.493c-0.617-18.584-0.174-37.225,0.527-55.015
					c25.794-0.329,52.276-0.377,75.15-0.377c8.56,0,17.126,0.008,25.67,0.015c8.507,0.007,16.995,0.014,25.435,0.014
					C161.462,239.771,187.819,239.717,213.375,239.349 M221.381,231.221c-26.929,0.466-55.57,0.551-84.792,0.551
					c-16.917,0-34.022-0.028-51.105-0.028c-28.005,0-55.945,0.077-82.83,0.483c-0.987,22.83-1.711,46.713-0.537,70.642
					c24.597,0.955,47.411,0.907,70.641,2.63c0.337,46.748-0.713,94.883,0.496,140.758c17.759,0.922,35.202,1.748,51.097,1.748
					c7.808,0,15.246-0.2,22.159-0.686c1.805-45.616-0.618-97.644,0.551-141.283c7.03-0.63,14.798-0.824,22.859-0.824
					c13.072,0,26.904,0.512,39.573,0.512c4.101,0,8.083-0.054,11.874-0.195C221.398,282.82,221.356,255.662,221.381,231.221
					L221.381,231.221z"/>
			</g>
			<g>
				<path fill="#010101" d="M315.473,238.964c1.574,63.69,3.123,135.637,2.723,200.48c-6.482,0.257-13.113,0.379-20.381,0.379
					c-6.329,0-12.463-0.087-18.957-0.18c-6.82-0.097-13.872-0.196-21.503-0.196c-2.052,0-4.057,0.007-6.034,0.021
					c-1.132-64.285-1.559-136.464-1.184-200.409c5.984,0.101,12.091,0.147,18.782,0.147c7.299,0,14.403-0.056,21.924-0.114
					C298.608,239.032,306.625,238.97,315.473,238.964 M243.739,230.93c-0.752,0.295-1.272,0.822-1.561,1.578
					c-0.462,68.159,0.013,146.924,1.288,215.061c4.873-0.088,9.475-0.121,13.888-0.121c14.732,0,27.316,0.376,40.46,0.376
					c8.902,0,18.065-0.173,28.325-0.751c0.601-69.471-1.139-147.059-2.862-216.098c-2.22-0.008-4.385-0.011-6.505-0.011
					c-18.022,0-32.667,0.243-47.853,0.243C260.873,231.207,252.673,231.139,243.739,230.93L243.739,230.93z"/>
			</g>
			<g>
				<path fill="#010101" d="M355.047,239.546c16.268,0,33.451,0.276,50.069,0.543c13.785,0.222,28.039,0.451,41.66,0.521
					c0.603,0.003,1.208,0.005,1.811,0.005c5.041,0,10.078-0.106,14.949-0.209c4.819-0.101,9.371-0.196,13.878-0.196
					c7.387,0,13.165,0.273,18.183,0.86c10.576,1.239,19.981,4.647,29.078,7.943c2.548,0.924,5.17,1.874,7.793,2.768
					c0.603,0.465,1.206,0.93,1.809,1.395c11.675,8.997,22.702,17.495,28.987,29.234c13.213,24.683,14.78,69.475,3.646,104.189
					c-10.381,32.355-37.96,50.571-81.973,54.141c-6.676,0.542-14.196,0.805-22.991,0.805c-7.97,0-16.296-0.212-24.348-0.417
					c-6.357-0.162-12.932-0.33-19.432-0.398c-12.629-0.134-25.597-0.896-38.138-1.634c-7.633-0.449-15.462-0.91-23.211-1.228
					c-1.545-61.318-3.034-127.958-4.431-198.318c0.878-0.002,1.765-0.003,2.657-0.003H355.047 M421.403,306.845l-1.552,1.46
					l0.15,3.651c0.361,8.754,0.401,18.657,0.439,28.234c0.046,11.294,0.089,21.961,0.63,30.546l0.533,8.447l8.404-1.008
					c4.334-0.521,8.989-0.591,12.972-0.591c1.4,0,2.798,0.01,4.187,0.019c1.407,0.01,2.807,0.02,4.19,0.02
					c9.228,0,18.905-0.347,26.896-4.48c8.594-4.448,14.996-12.97,17.567-23.38c2.741-11.102,0.82-22.478-5.271-31.213
					c-10.792-15.474-29.859-16.77-46.885-16.77c-4.569,0-9.23,0.121-14.849,0.279l-0.621,0.018l-0.611,0.113
					C426.232,302.441,423.182,303.382,421.403,306.845 M355.04,231.546c-3.448,0-6.875,0.012-10.261,0.039
					c-0.609,0.087-0.567,0.827-0.52,1.573c1.378,69.945,2.985,143.062,4.752,212.445c22.578,0.609,45.954,2.88,69.071,3.125
					c14.735,0.155,29.524,0.815,43.864,0.815c8.051,0,15.962-0.208,23.639-0.831c44.989-3.648,77.058-22.625,88.942-59.67
					c11.537-35.971,10.444-83.033-4.211-110.409c-7.656-14.302-21.029-23.942-34.02-34.006c-12.354-4.11-24.655-9.733-39.77-11.504
					c-6.055-0.709-12.472-0.915-19.113-0.915c-9.301,0-19.038,0.405-28.827,0.405c-0.589,0-1.18-0.002-1.769-0.005
					C416.847,232.457,384.904,231.546,355.04,231.546L355.04,231.546z M429.056,370.232c-0.988-15.666-0.273-39.545-1.061-58.606
					c0.448-0.422,0.31-1.433,1.047-1.569c5.095-0.144,9.983-0.276,14.623-0.276c18.114,0,32.429,2.026,40.323,13.346
					c9.609,13.78,4.914,35.496-9.412,42.912c-6.192,3.203-14.415,3.585-23.219,3.585c-2.75,0-5.558-0.038-8.377-0.038
					C438.305,369.585,433.596,369.688,429.056,370.232L429.056,370.232z"/>
			</g>
			<g>
				<path fill="#010101" d="M780.343,237.411c0.143,13.417,0.042,26.717-0.057,39.648c-0.052,6.868-0.105,13.908-0.122,20.974
					c-11.615,0.492-24.504,0.724-39.879,0.724c-11.3,0-22.988-0.123-34.292-0.241c-8.195-0.087-16.67-0.176-25.06-0.22l-4.957-0.025
					l-2.23,4.427c-2.351,4.669-1.598,14.266-1.175,16.564l1.145,6.224l6.32,0.319c19.428,0.98,40.75,0.982,61.37,0.984
					c13.399,0.001,26.19,0.002,38.142,0.258c0.02,3.109,0.11,6.392,0.202,9.771c0.152,5.535,0.308,11.199,0.164,16.461
					c-7.125,0.12-14.938,0.177-24.03,0.177c-9.972,0-20.307-0.069-30.301-0.138c-9.971-0.067-20.281-0.137-30.21-0.137
					c-5.354-0.001-10.176,0.02-14.744,0.06l-5.406,0.049l-1.972,5.033c-1.326,3.387-1.169,7.073-1.029,10.326
					c0.055,1.285,0.111,2.615,0.045,3.529l-0.601,8.3l8.316,0.274c7.81,0.257,16.846,0.382,27.625,0.382
					c11.716,0,24.003-0.146,35.886-0.287c11.657-0.14,22.667-0.271,32.965-0.271c1.093,0,2.154,0.002,3.188,0.005
					c0.203,17.051,0.048,39.511-0.136,57.743c-13.886,0.676-26.754,0.777-37.785,0.777c-6.062,0-12.075-0.035-18.442-0.071
					c-6.505-0.038-13.231-0.077-20.155-0.077c-3.088,0-6.219,0.008-9.403,0.026c-14.485,0.088-25.575,0.149-36.393,0.149
					c-16.12,0-30.367-0.146-46.336-0.48c-1.17-38.876-1.406-84.502-1.656-132.631c-0.05-9.744-0.102-19.632-0.161-29.643
					c-0.022-3.637-0.068-7.345-0.113-10.932c-0.12-9.56-0.235-18.691,0.063-27.103c14.81-0.055,29.949-0.068,45.864-0.084
					C696.228,238.22,738.78,238.18,780.343,237.411 M788.226,229.255c-62.05,1.296-127.513,0.851-185.232,1.112
					c-0.752,0.295-1.271,0.822-1.559,1.576c-0.868,13.461-0.349,29.228-0.257,44.48c0.378,63.4,0.42,121.87,2.064,170.054
					c20.88,0.496,37.016,0.652,54.089,0.652c11.208,0,22.822-0.067,36.44-0.149c3.169-0.019,6.283-0.026,9.355-0.026
					c13.518,0,26.167,0.148,38.598,0.148c15.171,0,30.016-0.222,45.706-1.206c0.259-23.528,0.501-54.115,0.086-73.258
					c-3.542-0.043-7.237-0.062-11.059-0.062c-21.114,0-45.974,0.558-68.851,0.558c-9.61,0-18.877-0.098-27.361-0.378
					c0.27-3.721-0.673-8.639,0.454-11.516c4.822-0.043,9.718-0.06,14.673-0.06c19.837,0,40.546,0.274,60.511,0.274
					c10.824,0,21.433-0.081,31.563-0.33c1.358-13.308-0.445-30.578,0.272-41.862c-32.457-1.072-72.939,0.284-107.28-1.449
					c-0.546-2.969-0.424-9.779,0.452-11.519c20.018,0.104,39.905,0.461,59.394,0.461c16.291,0,32.304-0.249,47.876-1.103
					C788.111,280.118,788.706,255.215,788.226,229.255L788.226,229.255z"/>
			</g>
		</g>
	</g>
</g>
</svg>
