<?xml version="1.0" encoding="utf-8"?>
<!-- Generator: Adobe Illustrator 16.0.3, SVG Export Plug-In . SVG Version: 6.00 Build 0)  -->
<svg version="1.2" baseProfile="tiny" id="Layer_1" xmlns="http://www.w3.org/2000/svg" xmlns:xlink="http://www.w3.org/1999/xlink"
	 x="0px" y="0px" width="792px" height="449.5px" viewBox="0 0 792 449.5" xml:space="preserve">
<g>
	<g>
		<path fill="#010101" d="M475.576,146.413c-9.472-0.939-23.747,1.639-35.063-0.836c-0.002-18.726-0.956-33.961,0.735-51.81
			c35.84,0.668,76.808,1.095,111.461,0.38c5.579,7.193,6.242,13.966,5.376,24.038c-3.031,35.259-19.423,67.27-42.402,84.501
			c-7.682,5.759-18.104,11.477-28.692,14.823c-10.698,3.38-23.29,6.716-35.016,7.012c-58.482,1.469-106.014-33.174-116.146-83.551
			C326.869,96.422,341.478,50.482,367.6,28.8c18.551-15.397,46.348-26.975,79.891-28.736c26.399-1.387,50.744,6.935,67.612,18.434
			c6.334,4.316,13.151,7.988,16.816,11.935c2.119,2.282,6.457,9.369,6.345,10.951c-0.26,3.634-9.678,8.062-14.06,11.598
			c-10.566,8.525-17.737,13.664-28.647,22.149c-3.711,2.887-10.868,10.304-14.069,10.026c-4.62-0.402-5.785-4.528-8.93-5.702
			c-14.075-5.263-31.196-0.545-40.776,6.523c-8.576,6.327-14.928,17.08-16.06,27.306c-2.832,25.577,12.067,43.149,36.898,44.782
			C464.54,158.846,470.141,154.808,475.576,146.413z"/>
		<path fill="#010101" d="M2.21,6.278c11.644,0.14,25.493-0.415,38.721-0.233c12.932,0.178,26.46-0.479,37.164,1.871
			c0.713,36.918,0.325,64.408,1.659,102.552c21.514,1.411,43.161-0.786,59.655,0.166c1.373-32.801-0.936-69.238,0.437-102.042
			c25.598-0.447,56.125-0.824,82.149-1.014c0.419,71.632,1.276,140.33,0.222,211.924c-25.805,0.845-54.289-0.153-81.108-0.036
			c-1.561-10.731-0.172-23.87-0.742-36.624c-20.712-1.316-41.841,0.469-59.658-0.691c-1.189,12.309-0.083,25.058,0.219,36.629
			c-25.134,0.69-53.142-0.264-79.538-0.048C1.068,148.193,1.171,78.071,1.174,7.853C1.145,6.958,1.553,6.496,2.21,6.278z"/>
		<path fill="#010101" d="M790.234,1.558c1.684,60.139-0.616,128.079-0.938,192.571c-0.04,7.977,0.494,16.401-2.477,23.563
			c-27.037-0.186-55.459,1.027-81.63-0.036c-3.035-10.501,0.292-26.696-0.765-40.287c-17.671-0.812-38.831-0.577-56.512,0.337
			c-0.805,14.86,0.662,27.376-1.329,40.3c-26.51,0.158-53.022,0.319-79.535,0.477c-2.859-14.534-0.711-31.351-0.814-48.661
			c-0.103-17.057,0.482-35.489,0.744-50.761c0.652-38.468,0.948-73.038,1.409-114.083c28.116,0.798,51.564-0.414,80.059-0.48
			c2.276,33.46-0.468,69.376,0.096,103.609c14.232,0.35,37.109-0.505,55.99-0.334c1.908-32.84-0.52-74.064,2.511-105.194
			C737.413,2.676,760.81,2.084,790.234,1.558z"/>
		<path fill="#010101" d="M240.832,7.463c17.602,1.07,52.23-0.588,78.494,0.576c2.761,15.842,1.773,34.017,1.879,51.793
			c0.315,52.638,2.532,108.792,2.008,160.633c-27.096-0.128-54.357-0.087-81.112-0.561c-1.627-69.246-1.022-140.749-1.787-210.87
			C240.267,8.295,240.223,7.555,240.832,7.463z"/>
		<path fill="#010101" d="M221.381,231.178c-0.025,24.441,0.017,51.6-0.014,74.306c-22.726,0.852-52.186-1.473-74.305,0.508
			c-1.169,43.64,1.254,95.667-0.551,141.283c-20.987,1.475-46.773,0.312-73.256-1.062c-1.209-45.875-0.159-94.01-0.496-140.758
			c-23.23-1.722-46.044-1.675-70.641-2.63c-1.174-23.929-0.45-47.812,0.537-70.642C74.264,231.102,153.303,232.355,221.381,231.178z
			"/>
		<path fill="#010101" d="M243.739,230.886c27.781,0.651,48.447-0.06,79.538,0.046c1.724,69.039,3.463,146.626,2.863,216.097
			c-29.949,1.688-50.524-0.082-82.674,0.496c-1.275-68.137-1.75-146.901-1.288-215.06
			C242.467,231.709,242.987,231.181,243.739,230.886z"/>
		<path fill="#010101" d="M344.778,231.542c32.716-0.26,68.608,0.854,102.04,1.025c17.377,0.091,34.668-1.247,49.709,0.514
			c15.115,1.771,27.415,7.393,39.77,11.504c12.99,10.064,26.363,19.704,34.019,34.006c14.656,27.376,15.748,74.438,4.211,110.409
			c-11.884,37.045-43.953,56.021-88.942,59.67c-21.351,1.732-44.494,0.258-67.503,0.016c-23.117-0.246-46.493-2.516-69.071-3.125
			c-1.767-69.383-3.374-142.5-4.752-212.446C344.211,232.369,344.169,231.629,344.778,231.542z M427.995,311.583
			c0.787,19.062,0.072,42.941,1.061,58.607c16.037-1.924,34.184,1.67,45.52-4.195c14.326-7.416,19.022-29.131,9.412-42.912
			c-9.917-14.219-29.961-13.775-54.946-13.07C428.305,310.151,428.443,311.161,427.995,311.583z"/>
		<path fill="#010101" d="M602.993,230.324c57.72-0.262,123.183,0.184,185.233-1.112c0.48,25.96-0.115,50.863-0.065,76.399
			c-34.201,1.876-70.518,0.835-107.269,0.642c-0.876,1.739-0.998,8.549-0.453,11.518c34.341,1.734,74.824,0.377,107.281,1.449
			c-0.718,11.285,1.086,28.555-0.273,41.863c-33.485,0.824-72.158-0.193-106.747,0.115c-1.127,2.877-0.184,7.795-0.454,11.516
			c32.335,1.066,75.94-0.5,107.271-0.119c0.415,19.143,0.173,49.73-0.086,73.258c-31.469,1.975-59.528,0.881-93.659,1.084
			c-34.363,0.207-55.944,0.32-90.53-0.502c-1.644-48.184-1.686-106.654-2.064-170.054c-0.092-15.253-0.611-31.019,0.257-44.481
			C601.723,231.146,602.241,230.619,602.993,230.324z"/>
	</g>
</g>
</svg>
