<?xml version="1.0" encoding="utf-8"?>
<!-- Generator: Adobe Illustrator 16.0.3, SVG Export Plug-In . SVG Version: 6.00 Build 0)  -->
<!DOCTYPE svg PUBLIC "-//W3C//DTD SVG 1.1//EN" "http://www.w3.org/Graphics/SVG/1.1/DTD/svg11.dtd">
<svg version="1.1" id="Layer_1" xmlns="http://www.w3.org/2000/svg" xmlns:xlink="http://www.w3.org/1999/xlink" x="0px" y="0px"
	 width="1650px" height="927px" viewBox="0 0 1650 927" enable-background="new 0 0 1650 927" xml:space="preserve">
<path fill-rule="evenodd" clip-rule="evenodd" fill="#FFFFFF" d="M0,0v927h1650V0H0z M918.112,121.048l58.252-3.338
	c7.332,6.928,21.396,12.165,39.977,13.134c18.576,0.969,33.153-2.774,41.223-8.898l54.957,10.776c0,0,70.964,51.597,72.188,58.494
	c1.225,6.898-38.038,52.344-38.038,52.344l-37.407-20.369c0,0-4.689,29.713-7.247,83.774c-2.572,54.331-1.231,130.053-3.541,134.513
	c-4.61,8.896-196.382,0.481-196.639-10.257c-1.797-75.117,12.577-221.257,12.577-221.257s-31.538,16.831-39.409,14.83
	c-7.869-2-31.967-54.464-31.967-54.464L918.112,121.048z M529.601,125.128l57.717-8.224c7.939,6.285,22.433,10.319,41.028,9.723
	c18.594-0.597,32.77-5.551,40.244-12.329l55.734,6.114c0,0,75.44,45.432,77.296,52.199c1.857,6.769-33.064,55.341-33.064,55.341
	l-39.14-17.146c0,0-1.931,29.992,0.504,84.06c2.445,54.338,10.76,129.657,8.871,134.294c-3.773,9.248-195.572,16.987-196.817,6.312
	c-8.711-74.677-7.863-221.463-7.863-221.463s-29.865,19.417-37.889,18.086c-8.025-1.331-36.859-51.567-36.859-51.567
	L529.601,125.128z M176.404,466.738c-15.227-72.93-27.428-217.767-27.428-217.767s-27.733,21.615-35.765,20.964
	c-8.034-0.65-40.938-47.814-40.938-47.814l64.359-60.438l56.2-12.875c8.389,5.543,23.044,8.326,41.332,6.203
	s31.83-8.18,38.599-15.482l55.518,1.43c0,0,78.447,38.58,80.88,45.102c2.433,6.521-27.698,57.308-27.698,57.308l-40.129-13.679
	c0,0,0.759,29.741,7.964,82.863c7.237,53.389,22.128,126.985,20.676,131.715C367.076,453.699,178.581,477.163,176.404,466.738z
	 M587.102,589.162l-37.242-18.477c0,0-3.393,29.112-3.748,81.863c-0.36,53.017,3.938,126.725,1.863,131.151
	c-4.139,8.834-191.263,7.631-191.937-2.818c-4.717-73.102,3.513-215.973,3.513-215.973s-30.056,17.543-37.8,15.882
	c-7.746-1.661-33.286-51.884-33.286-51.884l71.177-50.74l56.608-5.379c7.412,6.481,21.32,11.07,39.455,11.337
	c18.133,0.267,32.184-3.912,39.803-10.172l53.953,8.492c0,0,71.158,47.671,72.625,54.344
	C623.55,543.462,587.102,589.162,587.102,589.162z M957.544,593.754l-38.637-18.45c0,0-3.005,30.013-2.487,84.307
	c0.516,54.568,6.171,130.362,4.11,134.951c-4.11,9.155-196.717,10.746-197.584,0c-6.077-75.164,0-222.328,0-222.328
	s-30.637,18.51-38.638,16.917c-8-1.593-35.125-52.895-35.125-52.895l72.404-53.297l58.171-6.391
	c7.736,6.559,22.126,11.07,40.795,11.07c18.666,0,33.058-4.512,40.793-11.07l55.671,7.925c0,0,74.029,47.985,75.65,54.83
	C994.291,546.171,957.544,593.754,957.544,593.754z M1327.122,591.384l-38.186-17.259c0,0-2.266,29.402-0.549,82.474
	c1.725,53.338,8.949,127.323,7.036,131.852c-3.814,9.032-192.078,14.475-193.167,3.987c-7.621-73.359-4.969-217.357-4.969-217.357
	s-29.541,18.714-37.396,17.319c-7.856-1.396-35.52-51.004-35.52-51.004l69.593-53.567l56.729-7.421
	c7.708,6.255,21.878,10.376,40.129,9.999s32.219-5.079,39.636-11.646l54.603,6.623c0,0,73.45,45.418,75.187,52.078
	C1361.985,544.124,1327.122,591.384,1327.122,591.384z M1520.409,283.546l-35.634-22.389c0,0-6.571,29.071-12.623,82.326
	c-6.085,53.52-9.7,128.412-12.275,132.679c-5.133,8.508-194.072-11.42-193.626-22.043c3.125-74.322,26.858-217.83,26.858-217.83
	s-32.259,14.718-39.905,12.264c-7.648-2.453-28.03-55.743-28.03-55.743l77.392-44.14l57.776,0.229
	c6.789,7.288,20.347,13.314,38.641,15.397c18.293,2.083,32.94-0.733,41.313-6.294l53.6,13.974c0,0,66.751,55.273,67.512,62.161
	C1562.167,241.025,1520.409,283.546,1520.409,283.546z"/>
</svg>
