<?xml version="1.0" encoding="utf-8"?>
<!-- Generator: Adobe Illustrator 16.0.3, SVG Export Plug-In . SVG Version: 6.00 Build 0)  -->
<!DOCTYPE svg PUBLIC "-//W3C//DTD SVG 1.1//EN" "http://www.w3.org/Graphics/SVG/1.1/DTD/svg11.dtd">
<svg version="1.1" id="Layer_1" xmlns="http://www.w3.org/2000/svg" xmlns:xlink="http://www.w3.org/1999/xlink" x="0px" y="0px"
	 width="1650px" height="927px" viewBox="0 0 1650 927" enable-background="new 0 0 1650 927" xml:space="preserve">
<path fill-rule="evenodd" clip-rule="evenodd" fill="#FFFFFF" d="M0,0v927h1650V0H0z M1330.298,122.479l35.752-4.132
	c4.755,4.24,13.6,7.158,25.073,7.158c11.473,0,20.317-2.918,25.072-7.158l34.216,5.125c0,0,45.501,31.03,46.497,35.457
	c0.996,4.428-21.589,35.199-21.589,35.199l-23.747-11.932c0,0-1.847,19.409-1.529,54.521c0.317,35.287,3.794,84.303,2.527,87.271
	c-2.527,5.919-120.904,6.948-121.438,0c-3.735-48.607,0-143.776,0-143.776s-18.83,11.97-23.747,10.939
	c-4.916-1.03-21.588-34.207-21.588-34.207L1330.298,122.479z M1102.953,122.479l35.753-4.132c4.755,4.24,13.6,7.158,25.073,7.158
	c11.473,0,20.317-2.918,25.072-7.158l34.216,5.125c0,0,45.501,31.03,46.497,35.457c0.996,4.428-21.59,35.199-21.59,35.199
	l-23.747-11.932c0,0-1.846,19.409-1.528,54.521c0.317,35.287,3.794,84.303,2.526,87.271c-2.526,5.919-120.904,6.948-121.438,0
	c-3.735-48.607,0-143.776,0-143.776s-18.831,11.97-23.747,10.939c-4.917-1.03-21.589-34.207-21.589-34.207L1102.953,122.479z
	 M875.608,122.479l35.752-4.132c4.755,4.24,13.6,7.158,25.073,7.158c11.473,0,20.317-2.918,25.072-7.158l34.216,5.125
	c0,0,45.501,31.03,46.497,35.457c0.996,4.428-21.589,35.199-21.589,35.199l-23.747-11.932c0,0-1.847,19.409-1.528,54.521
	c0.317,35.287,3.793,84.303,2.526,87.271c-2.526,5.919-120.904,6.948-121.438,0c-3.735-48.607,0-143.776,0-143.776
	s-18.83,11.97-23.747,10.939c-4.916-1.03-21.588-34.207-21.588-34.207L875.608,122.479z M648.263,122.479l35.752-4.132
	c4.755,4.24,13.6,7.158,25.073,7.158c11.473,0,20.317-2.918,25.072-7.158l34.216,5.125c0,0,45.501,31.03,46.497,35.457
	c0.996,4.428-21.59,35.199-21.59,35.199l-23.746-11.932c0,0-1.847,19.409-1.529,54.521c0.317,35.287,3.794,84.303,2.527,87.271
	c-2.527,5.919-120.905,6.948-121.438,0c-3.735-48.607,0-143.776,0-143.776s-18.831,11.97-23.747,10.939
	s-21.588-34.207-21.588-34.207L648.263,122.479z M420.917,122.479l35.752-4.132c4.755,4.24,13.6,7.158,25.073,7.158
	c11.473,0,20.317-2.918,25.072-7.158l34.216,5.125c0,0,45.501,31.03,46.497,35.457c0.996,4.428-21.589,35.199-21.589,35.199
	l-23.747-11.932c0,0-1.846,19.409-1.529,54.521c0.318,35.287,3.794,84.303,2.527,87.271c-2.527,5.919-120.905,6.948-121.438,0
	c-3.735-48.607,0-143.776,0-143.776s-18.831,11.97-23.747,10.939s-21.588-34.207-21.588-34.207L420.917,122.479z M193.572,122.479
	l35.752-4.132c4.755,4.24,13.6,7.158,25.073,7.158c11.473,0,20.317-2.918,25.072-7.158l34.216,5.125c0,0,45.501,31.03,46.497,35.457
	c0.996,4.428-21.589,35.199-21.589,35.199l-23.747-11.932c0,0-1.847,19.409-1.529,54.521c0.317,35.287,3.793,84.303,2.527,87.271
	c-2.527,5.919-120.905,6.948-121.438,0c-3.735-48.607,0-143.776,0-143.776s-18.831,11.97-23.747,10.939
	s-21.588-34.207-21.588-34.207L193.572,122.479z M82.729,563.904c-3.735-48.606,0-143.777,0-143.777s-18.831,11.971-23.747,10.939
	c-4.917-1.029-21.588-34.206-21.588-34.206l44.501-34.466l35.752-4.133c4.755,4.241,13.6,7.159,25.073,7.159
	c11.473,0,20.317-2.918,25.072-7.159l34.216,5.125c0,0,45.501,31.031,46.497,35.459c0.996,4.427-21.589,35.199-21.589,35.199
	l-23.747-11.934c0,0-1.846,19.41-1.529,54.522c0.318,35.288,3.794,84.304,2.527,87.271
	C201.64,569.824,83.262,570.853,82.729,563.904z M338.594,673.959l-23.747-11.933c0,0-1.847,19.409-1.529,54.521
	c0.317,35.288,3.793,84.303,2.527,87.271c-2.527,5.92-120.905,6.948-121.438,0c-3.735-48.606,0-143.776,0-143.776
	s-18.831,11.97-23.747,10.939s-21.588-34.206-21.588-34.206l44.5-34.467l35.752-4.132c4.755,4.241,13.6,7.158,25.073,7.158
	c11.473,0,20.317-2.917,25.072-7.158l34.216,5.124c0,0,45.501,31.031,46.497,35.459S338.594,673.959,338.594,673.959z
	 M310.074,563.904c-3.735-48.606,0-143.777,0-143.777s-18.831,11.971-23.747,10.939c-4.917-1.029-21.588-34.206-21.588-34.206
	l44.501-34.466l35.752-4.133c4.755,4.241,13.6,7.159,25.073,7.159c11.473,0,20.317-2.918,25.072-7.159l34.216,5.125
	c0,0,45.501,31.031,46.497,35.459c0.996,4.427-21.589,35.199-21.589,35.199l-23.747-11.934c0,0-1.846,19.41-1.529,54.522
	c0.317,35.288,3.794,84.304,2.527,87.271C428.985,569.824,310.607,570.853,310.074,563.904z M565.939,673.959l-23.747-11.933
	c0,0-1.846,19.409-1.529,54.521c0.318,35.288,3.794,84.303,2.527,87.271c-2.527,5.92-120.905,6.948-121.438,0
	c-3.735-48.606,0-143.776,0-143.776s-18.831,11.97-23.747,10.939s-21.588-34.206-21.588-34.206l44.501-34.467l35.752-4.132
	c4.755,4.241,13.6,7.158,25.073,7.158c11.473,0,20.317-2.917,25.072-7.158l34.216,5.124c0,0,45.501,31.031,46.497,35.459
	S565.939,673.959,565.939,673.959z M537.419,563.904c-3.735-48.606,0-143.777,0-143.777s-18.831,11.971-23.747,10.939
	c-4.917-1.029-21.588-34.206-21.588-34.206l44.501-34.466l35.752-4.133c4.755,4.241,13.599,7.159,25.073,7.159
	c11.473,0,20.317-2.918,25.072-7.159l34.216,5.125c0,0,45.5,31.031,46.497,35.459c0.996,4.427-21.589,35.199-21.589,35.199
	l-23.747-11.934c0,0-1.846,19.41-1.529,54.522c0.317,35.288,3.794,84.304,2.527,87.271
	C656.33,569.824,537.952,570.853,537.419,563.904z M793.284,673.959l-23.746-11.933c0,0-1.847,19.409-1.529,54.521
	c0.317,35.288,3.794,84.303,2.527,87.271c-2.527,5.92-120.905,6.948-121.438,0c-3.735-48.606,0-143.776,0-143.776
	s-18.831,11.97-23.747,10.939s-21.588-34.206-21.588-34.206l44.501-34.467l35.752-4.132c4.755,4.241,13.6,7.158,25.073,7.158
	c11.473,0,20.317-2.917,25.072-7.158l34.216,5.124c0,0,45.501,31.031,46.497,35.459S793.284,673.959,793.284,673.959z
	 M764.764,563.904c-3.736-48.606,0-143.777,0-143.777s-18.831,11.971-23.748,10.939c-4.917-1.029-21.588-34.206-21.588-34.206
	l44.5-34.466l35.753-4.133c4.754,4.241,13.6,7.159,25.072,7.159c11.474,0,20.318-2.918,25.073-7.159l34.216,5.125
	c0,0,45.501,31.031,46.497,35.459c0.996,4.427-21.59,35.199-21.59,35.199l-23.747-11.934c0,0-1.846,19.41-1.528,54.522
	c0.317,35.288,3.794,84.304,2.526,87.271C883.675,569.824,765.297,570.853,764.764,563.904z M1020.629,673.959l-23.747-11.933
	c0,0-1.847,19.409-1.528,54.521c0.317,35.288,3.793,84.303,2.526,87.271c-2.526,5.92-120.904,6.948-121.438,0
	c-3.735-48.606,0-143.776,0-143.776s-18.83,11.97-23.747,10.939c-4.916-1.03-21.588-34.206-21.588-34.206l44.501-34.467
	l35.752-4.132c4.755,4.241,13.6,7.158,25.073,7.158c11.473,0,20.317-2.917,25.072-7.158l34.216,5.124
	c0,0,45.501,31.031,46.497,35.459S1020.629,673.959,1020.629,673.959z M992.109,563.904c-3.735-48.606,0-143.777,0-143.777
	s-18.83,11.971-23.747,10.939c-4.916-1.029-21.588-34.206-21.588-34.206l44.501-34.466l35.752-4.133
	c4.755,4.241,13.6,7.159,25.073,7.159c11.473,0,20.317-2.918,25.072-7.159l34.216,5.125c0,0,45.501,31.031,46.497,35.459
	c0.996,4.427-21.589,35.199-21.589,35.199l-23.747-11.934c0,0-1.847,19.41-1.529,54.522c0.317,35.288,3.794,84.304,2.527,87.271
	C1111.02,569.824,992.643,570.853,992.109,563.904z M1247.974,673.959l-23.747-11.933c0,0-1.846,19.409-1.528,54.521
	c0.317,35.288,3.794,84.303,2.526,87.271c-2.526,5.92-120.904,6.948-121.438,0c-3.735-48.606,0-143.776,0-143.776
	s-18.831,11.97-23.747,10.939c-4.917-1.03-21.589-34.206-21.589-34.206l44.501-34.467l35.753-4.132
	c4.755,4.241,13.6,7.158,25.073,7.158c11.473,0,20.317-2.917,25.072-7.158l34.216,5.124c0,0,45.501,31.031,46.497,35.459
	S1247.974,673.959,1247.974,673.959z M1219.454,563.904c-3.734-48.606,0-143.777,0-143.777s-18.83,11.971-23.746,10.939
	c-4.917-1.029-21.589-34.206-21.589-34.206l44.501-34.466l35.752-4.133c4.756,4.241,13.6,7.159,25.074,7.159
	c11.473,0,20.317-2.918,25.072-7.159l34.216,5.125c0,0,45.5,31.031,46.497,35.459c0.996,4.427-21.59,35.199-21.59,35.199
	l-23.747-11.934c0,0-1.846,19.41-1.528,54.522c0.317,35.288,3.794,84.304,2.526,87.271
	C1338.366,569.824,1219.988,570.853,1219.454,563.904z M1475.32,673.959l-23.747-11.933c0,0-1.847,19.409-1.529,54.521
	c0.317,35.288,3.794,84.303,2.527,87.271c-2.527,5.92-120.904,6.948-121.438,0c-3.735-48.606,0-143.776,0-143.776
	s-18.83,11.97-23.747,10.939c-4.916-1.03-21.588-34.206-21.588-34.206l44.501-34.467l35.752-4.132
	c4.755,4.241,13.6,7.158,25.073,7.158c11.473,0,20.317-2.917,25.072-7.158l34.216,5.124c0,0,45.501,31.031,46.497,35.459
	S1475.32,673.959,1475.32,673.959z M1590.987,434.045l-23.747-11.934c0,0-1.847,19.41-1.529,54.522
	c0.317,35.288,3.794,84.304,2.527,87.271c-2.527,5.92-120.905,6.949-121.438,0c-3.735-48.606,0-143.777,0-143.777
	s-18.831,11.971-23.747,10.939c-4.917-1.029-21.588-34.206-21.588-34.206l44.5-34.466l35.753-4.133
	c4.755,4.241,13.6,7.159,25.073,7.159c11.473,0,20.317-2.918,25.072-7.159l34.216,5.125c0,0,45.501,31.031,46.497,35.459
	C1613.572,403.272,1590.987,434.045,1590.987,434.045z"/>
</svg>
