<?xml version="1.0" encoding="utf-8"?>
<!-- Generator: Adobe Illustrator 16.0.3, SVG Export Plug-In . SVG Version: 6.00 Build 0)  -->
<!DOCTYPE svg PUBLIC "-//W3C//DTD SVG 1.1//EN" "http://www.w3.org/Graphics/SVG/1.1/DTD/svg11.dtd">
<svg version="1.1" id="Layer_1" xmlns="http://www.w3.org/2000/svg" xmlns:xlink="http://www.w3.org/1999/xlink" x="0px" y="0px"
	 width="400px" height="39.94px" viewBox="-12.113 0 400 39.94" enable-background="new -12.113 0 400 39.94" xml:space="preserve">
<g id="background" display="none">
	<rect x="87.167" display="inline" fill="#F608FF" width="420.944" height="280.629"/>
</g>
<g id="Logo">
	<g>
		<path d="M59.149,26.378c1.045-3.357,1.967-6.338,2.899-9.315c1.029-3.287,2.065-6.573,3.1-9.858
			c0.124-0.397,0.268-0.79,0.373-1.192c0.485-1.865,1.646-2.523,3.47-1.957c1.414,0.44,1.988,1.79,1.179,3.426
			c-1.824,3.692-2.803,7.611-3.652,11.609c-0.423,1.985-1.449,3.833-1.977,5.805c-0.721,2.689-1.445,5.413-1.751,8.168
			c-0.237,2.115-0.985,2.445-2.65,2.906c-1.369,0.378-2.215-0.76-2.798-1.858c-0.434-0.816-0.732-1.713-1.03-2.593
			c-1.406-4.179-2.792-8.364-4.318-12.954c-0.775,2.009-1.4,3.687-2.07,5.346c-0.606,1.501-1.319,2.961-1.88,4.478
			c-0.748,2.022-1.271,4.14-2.152,6.098c-0.32,0.711-1.38,1.474-2.128,1.503c-0.827,0.03-1.996-0.544-2.453-1.23
			c-0.654-0.988-0.911-2.292-1.138-3.5c-0.725-3.851-1.438-7.71-1.994-11.588c-0.357-2.503-0.398-5.051-0.638-7.574
			c-0.124-1.297-0.38-2.579-0.562-3.871c-0.133-0.938,0.395-1.223,1.229-1.287c1.895-0.149,3.018,0.505,3.314,2.324
			c0.536,3.271,0.866,6.576,1.371,9.853c0.291,1.887,0.757,3.743,1.476,5.708c0.727-1.787,1.457-3.575,2.18-5.364
			c1.117-2.756,2.237-5.509,3.34-8.271c0.421-1.056,1.268-1.171,2.206-1.013c1.017,0.173,2.249-0.015,2.616,1.409
			c0.57,2.212,1.092,4.44,1.753,6.625C57.254,20.829,58.167,23.41,59.149,26.378z"/>
		<path d="M344.181,21.039c-0.18,1.657-0.363,3.315-0.54,4.97c-0.238,2.211-0.496,4.379-0.301,6.657
			c0.116,1.365-0.005,3.443-2.015,4.239c-1.396,0.551-2.398,0.328-2.99-1.073c-0.367-0.873-0.603-1.905-0.532-2.839
			c0.39-5.144,0.907-10.274,1.345-15.413c0.209-2.429,0.39-4.861,0.49-7.298c0.058-1.397-0.115-2.803-0.118-4.205
			c-0.004-2.644,1.731-3.798,4.203-2.822c1.074,0.423,1.808,1.038,2.092,2.318c0.486,2.182,1.341,4.282,1.851,6.46
			c0.353,1.51,0.256,3.124,0.593,4.641c0.635,2.862,1.434,5.687,2.164,8.526c0.165,0.022,0.329,0.048,0.497,0.07
			c0.285-1.016,0.627-2.019,0.847-3.048c0.528-2.466,1.048-4.937,1.486-7.42c0.526-2.981,0.974-5.977,1.438-8.971
			c0.208-1.333,0.954-2.135,2.296-2.167c1.234-0.028,2.214,0.548,2.457,1.849c0.178,0.95,0.347,1.962,0.208,2.898
			c-0.458,3.086-1.043,6.153-1.614,9.22c-0.09,0.493-0.437,0.933-0.544,1.425c-0.586,2.68-1.196,5.356-1.674,8.057
			c-0.46,2.605-0.766,5.242-1.149,7.861c-0.22,1.513-1.957,2.752-3.507,2.04c-1.189-0.547-2.529-1.78-2.847-2.965
			c-0.461-1.703-0.696-3.348-1.587-5.005c-1.056-1.959-1.328-4.337-1.93-6.537c-0.134-0.486-0.235-0.982-0.351-1.473
			C344.361,21.036,344.27,21.038,344.181,21.039z"/>
		<path d="M265.469,25.766c0.103-1.065,0.235-1.849,0.243-2.634c0.032-3.279,0.125-6.548,0.576-9.812
			c0.402-2.913,0.503-5.869,0.838-8.792c0.191-1.672,0.728-1.997,2.318-1.755c1.617,0.244,2.761,1.461,2.66,2.733
			c-0.093,1.168-0.099,2.346-0.129,3.519c-0.023,0.783,0.103,1.591-0.048,2.344c-0.877,4.39-1.187,8.833-1.441,13.293
			c-0.166,2.886-0.622,5.753-0.938,8.631c-0.086,0.794,0.057,1.674-0.242,2.372c-0.563,1.326-1.775,1.742-3.157,1.54
			c-1.243-0.18-2.263-1.282-2.435-2.558c-0.284-2.113-1.056-3.993-2.154-5.853c-1.102-1.869-1.702-4.031-2.564-6.047
			c-0.831-1.944-1.717-3.866-2.579-5.795c-0.209,0.041-0.417,0.083-0.624,0.124c0,0.564,0.013,1.127-0.003,1.691
			c-0.075,2.727-0.111,5.455-0.263,8.178c-0.057,1.013-0.423,2.005-0.582,3.015c-0.297,1.882-0.511,3.778-0.833,5.654
			c-0.144,0.824-0.369,1.676-1.531,1.67c-1.121-0.006-2.03-0.099-2.69-1.299c-0.875-1.588-0.527-3.149-0.186-4.659
			c1.001-4.411,1.526-8.813,1.169-13.359c-0.223-2.844,0.071-5.731,0.204-8.595c0.046-1.013,0.115-2.176,1.493-2.364
			c1.599-0.216,3.47-0.012,4.067,1.194c0.946,1.915,1.957,3.799,2.897,5.716c1.743,3.555,3.45,7.128,5.185,10.686
			C264.88,24.925,265.111,25.213,265.469,25.766z"/>
		<path d="M313.155,25.452c-2.233-0.123-4.7-0.259-7.355-0.404c-0.093,1.503-0.148,2.876-0.266,4.245
			c-0.175,2.047-0.396,4.092-0.592,6.137c-0.121,1.303-1.299,1.676-2.163,1.919c-0.635,0.179-1.692-0.011-2.145-1.105
			c-0.569-1.373-1.365-2.543-0.589-4.194c0.452-0.956,0.301-2.214,0.372-3.336c0.31-4.87,0.544-9.745,0.92-14.609
			c0.183-2.375,0.618-4.731,0.923-7.1c0.089-0.694,0.155-1.394,0.18-2.094c0.052-1.515,0.979-2.575,2.346-2.63
			c1.026-0.039,2.819,1.683,2.704,2.772c-0.216,2.043-0.649,4.065-0.861,6.107c-0.252,2.424-0.382,4.862-0.534,7.297
			c-0.061,0.94,0.367,1.299,1.371,1.271c1.515-0.042,2.986-0.566,4.569-0.049c1.145,0.372,1.957-0.418,2.003-1.447
			c0.204-4.167,0.407-8.334,0.628-12.503c0.122-2.339,1.808-3.345,3.769-2.108c0.612,0.385,1.11,1.413,1.141,2.168
			c0.086,2.133-0.062,4.276-0.184,6.411c-0.282,5.001-0.707,10-0.858,15.004c-0.07,2.314,0.358,4.646,0.558,6.969
			c0.105,1.247-0.472,2.167-1.427,2.882c-1.292,0.971-2.618,0.579-3.459-0.843c-1.156-1.959-1.186-4.055-1.067-6.223
			C313.218,28.507,313.155,27.01,313.155,25.452z"/>
		<path d="M370.005,17.189c0.923,0.098,1.799,0.225,2.677,0.271c2.254,0.117,4.515,0.139,6.764,0.312
			c2.117,0.163,2.755,0.898,2.68,2.775c-0.039,1.011-1.492,2.244-2.843,2.256c-1.825,0.017-3.652-0.09-5.478-0.151
			c-0.329-0.011-0.653-0.07-0.984-0.084c-3.099-0.136-3.604,0.396-3.521,3.468c0.026,1.017-0.135,2.041-0.237,3.058
			c-0.147,1.467,0.126,1.859,1.571,1.914c1.833,0.068,3.671,0.062,5.505,0.068c1.497,0.004,3.019-0.207,4.483,0.011
			c2.098,0.314,3.936,1.396,3.44,3.31c-0.342,1.317-1.27,2.262-2.851,2.23c-2.646-0.047-5.285-0.354-7.932-0.402
			c-1.959-0.037-3.974-0.074-5.873,0.316c-2.746,0.564-4.261-0.98-4.517-3.472c-0.014-0.136-0.031-0.336,0.044-0.41
			c1.576-1.523,0.882-3.615,1.279-5.417c0.409-1.852,0.211-3.827,0.407-5.734c0.235-2.274,0.67-4.528,0.901-6.804
			c0.238-2.353,0.285-4.723,0.511-7.075c0.105-1.085,0.365-2.174,0.705-3.21c0.242-0.744,0.82-1.119,1.739-1.098
			c3.198,0.067,6.399,0.034,9.6,0.026c1.534-0.005,3.082-0.184,4.596-0.026c1.435,0.146,2.049,1.048,1.91,2.241
			c-0.167,1.416-1.161,2.337-2.47,2.398c-3.075,0.143-6.15,0.299-9.222,0.506c-1.375,0.09-1.831,0.817-2.109,2.975
			C370.546,13.282,370.287,15.116,370.005,17.189z"/>
		<path d="M-3.63,15.16c-0.209,2.454-0.533,4.905-0.602,7.365C-4.341,26.231-4.28,29.94-4.273,33.65
			c0.002,1.468-0.94,2.956-1.931,2.978c-1.048,0.023-2.513-1.645-2.56-2.983c-0.041-1.126,0.029-2.261-0.021-3.387
			c-0.286-6.346,0.928-12.598,1.158-18.912c0.066-1.847,0.184-3.7,0.448-5.525c0.129-0.889,0.531-1.988,1.655-1.971
			c0.778,0.011,1.92,0.326,2.253,0.889c1.001,1.7,1.749,3.563,2.486,5.407c1.63,4.086,3.188,8.201,4.79,12.299
			c0.247,0.631,0.583,1.225,0.877,1.836c0.124-0.042,0.246-0.085,0.37-0.126c0.097-1.197,0.146-2.399,0.299-3.587
			c0.617-4.728,1.269-9.449,1.905-14.173c0.051-0.372,0.137-0.75,0.109-1.118C7.479,4.114,7.776,3.353,9.142,3.348
			c1.93-0.005,3.022,0.625,2.948,2.009c-0.081,1.525-0.235,3.083-0.645,4.547c-1.07,3.82-1.474,7.694-1.667,11.646
			c-0.161,3.356-0.805,6.688-1.213,10.033c-0.085,0.697-0.136,1.406-0.103,2.104c0.042,0.91-0.263,1.503-1.139,1.869
			c-0.936,0.389-1.756,0.223-2.232-0.574c-0.799-1.338-1.468-2.759-2.121-4.178c-1.038-2.247-2.091-4.494-3.005-6.794
			c-0.996-2.513-1.84-5.084-2.748-7.63c-0.154-0.424-0.307-0.852-0.461-1.276C-3.375,15.125-3.504,15.142-3.63,15.16z"/>
		<path d="M142.371,23.382c-0.587,3.593-1.083,6.637-1.625,9.956c-0.753,0.388-1.719,1.384-3.108,0.46
			c-0.91-0.604-1.645-2.461-1.438-3.63c0.977-5.516,2.02-11.021,2.851-16.557c0.314-2.099,0.146-4.276,0.159-6.416
			c0.013-1.985,0.77-2.796,2.714-2.994c2.181-0.22,4.353-0.711,6.532-0.74c1.659-0.021,3.329,0.494,4.562,1.812
			c2.343,2.501,3.782,5.439,4.234,8.849c0.296,2.225-1.209,3.65-2.34,5.236c-0.343,0.482-0.702,0.968-1.129,1.369
			c-0.536,0.504-1.145,0.931-1.735,1.374c-0.636,0.479-1.301,0.787-0.65,1.865c1.649,2.738,3.129,5.578,4.712,8.357
			c1,1.754-0.265,4.196-2.271,4.305c-0.804,0.046-2.432-1.544-2.77-2.846c-0.814-3.14-2.595-5.807-4.444-8.34
			C145.87,24.405,144.05,24.15,142.371,23.382z M143.258,18.939c1.606-0.078,2.928,0.055,4.127-0.269
			c0.881-0.237,1.586-1.095,2.396-1.64c2.835-1.913,3.594-4.167,1.377-6.864c-1.677-2.041-4.54-2.742-6.753-1.17
			c-0.17,0.121-0.366,0.336-0.381,0.523C143.765,12.488,143.534,15.46,143.258,18.939z"/>
		<path d="M168.827,22.612c-0.182,2.846-0.361,5.693-0.549,8.538c-0.068,1.029-0.161,2.057-0.243,3.088
			c-0.089,1.149-0.943,1.68-1.867,1.777c-0.621,0.066-1.49-0.265-1.919-0.724c-1.039-1.114-1.59-2.449-1.371-4.097
			c0.449-3.38,0.892-6.771,1.097-10.171c0.25-4.124,0.284-8.262,0.341-12.395c0.012-0.922-0.227-1.855-0.407-2.772
			c-0.231-1.182,0.066-1.838,1.404-2.016c2.966-0.397,4.546,1.194,4.158,4.146c-0.295,2.253-0.377,4.533-0.558,6.855
			c0.229-0.03,0.405,0.002,0.482-0.071c3.083-2.875,6.465-5.469,8.549-9.271c0.583-1.064,1.625-1.923,2.752-1.48
			c1.14,0.447,2.137,1.43,2.961,2.383c0.199,0.231-0.382,1.401-0.856,1.905c-2.933,3.136-5.93,6.213-8.925,9.291
			c-0.898,0.923-1.188,1.777-0.228,2.89c2.104,2.441,4.096,4.98,6.208,7.413c0.714,0.82,1.721,1.381,2.473,2.176
			c1.042,1.106,0.656,2.432,0.094,3.562c-0.24,0.481-1.187,1.027-1.638,0.903c-0.917-0.248-1.888-0.771-2.526-1.468
			c-1.956-2.131-3.772-4.389-5.619-6.616c-0.688-0.83-1.319-1.708-1.962-2.574c-0.408-0.553-0.791-1.127-1.185-1.693
			C169.27,22.333,169.049,22.472,168.827,22.612z"/>
		<path d="M133.198,15.078c-0.38,3.939-1.006,7.755-2.598,11.264c-0.828,1.823-2.531,3.229-3.673,4.936
			c-1.281,1.91-3.069,2.839-5.204,3.442c-1.917,0.542-3.736,0.086-4.996-1.087c-2.093-1.95-3.862-4.265-5.634-6.53
			c-0.393-0.502-0.218-1.438-0.323-2.173c-0.868-6.062,0.647-11.555,4.406-16.292c1.849-2.329,4.302-4.068,7.66-3.609
			c1.426,0.194,2.901,0.073,4.303,0.355c0.697,0.14,1.465,0.741,1.872,1.354c1.174,1.762,2.239,3.605,3.227,5.479
			C132.7,13.095,132.886,14.121,133.198,15.078z M128.137,17.016c-0.178-1.292-0.113-2.539-0.54-3.586
			c-1.181-2.904-2.775-4.883-6.168-3.331c-1.02,0.465-1.881,1.437-2.619,2.338c-2.252,2.75-3.296,6.038-3.568,9.511
			c-0.17,2.174,0.396,4.293,1.846,6.054c0.547,0.663,0.661,1.873,1.987,1.572c0.948-0.217,2.14-0.109,2.821-0.651
			C125.744,25.865,127.358,21.581,128.137,17.016z"/>
		<path d="M207.983,13.188c0.078,1.42-0.152,2.926,1.661,3.492c0.433,0.136,0.902,0.189,1.356,0.217
			c6.485,0.381,9.776,3.661,10.935,9.909c0.065,0.363,0.104,0.786-0.015,1.122c-0.864,2.44-1.404,5.111-2.797,7.21
			c-0.877,1.319-2.983,1.972-4.664,2.566c-1.965,0.692-4.007,0.278-6.063-0.106c-2.344-0.434-3.107-2.203-4.039-3.9
			c-0.515-0.941-0.953-1.942-1.271-2.964c-0.425-1.369,0.198-2.304,1.649-2.727c0.89-0.26,2.186,0.549,2.507,1.567
			c0.88,2.777,1.681,3.548,3.773,3.628c1.979,0.078,3.796-1.268,4.73-3.354c0.916-2.045,0.812-4.079-0.118-6.003
			c-0.675-1.391-2.22-1.395-3.565-1.577c-1.43-0.193-2.917-0.205-4.271-0.636c-0.943-0.3-1.909-1.02-2.508-1.816
			c-1.672-2.224-2.099-5.002-2.432-7.626c-0.233-1.853,0.514-3.85,0.949-5.755c0.105-0.462,0.662-0.878,1.098-1.197
			c1.165-0.851,2.31-1.775,3.591-2.416c1.669-0.836,3.465-1.381,5.328-0.443c1.377,0.693,2.759,1.377,4.116,2.102
			c0.968,0.518,1.789,1.297,1.463,2.452c-0.201,0.718-0.797,1.582-1.44,1.86c-1.014,0.439-2.043,0.08-2.857-0.865
			c-1.079-1.252-2.513-1.566-4.058-0.979c-1.462,0.554-2.609,1.405-2.681,3.198C208.325,11.164,208.115,12.174,207.983,13.188z"/>
		<path d="M285.918,3.068c3.693-0.251,5.899,1.914,7.872,4.359c0.855,1.061,0.866,3.208,0.095,3.784
			c-0.62,0.465-1.579,0.936-2.234,0.777c-0.724-0.178-1.637-0.967-1.836-1.667c-0.673-2.388-3.19-3.613-5.302-1.293
			c-1.696,1.864-2.836,3.786-2.45,6.421c0.233,1.592,0.971,2.439,2.599,2.584c0.792,0.07,1.577,0.252,2.367,0.254
			c3.192,0.012,5.999,3.612,6.559,6.034c0.766,3.298-1.079,9.062-4.433,11.059c-0.334,0.2-0.779,0.21-1.166,0.328
			c-0.843,0.26-1.698,0.486-2.517,0.808c-1.27,0.502-2.468,0.705-3.747-0.073c-1.046-0.638-2.185-1.138-3.318-1.608
			c-2.121-0.883-2.581-2.711-2.792-4.7c-0.166-1.577,1.111-1.941,2.15-2.069c0.66-0.083,1.479,0.527,2.116,0.983
			c0.892,0.641,1.594,1.583,2.537,2.112c1.073,0.601,4.125-0.394,4.834-1.463c1.078-1.631,1.808-4.051,0.409-5.29
			c-0.73-0.644-1.8-1.173-2.754-1.248c-4.714-0.365-7.689-3.495-8.147-8.256c-0.418-4.332,1.325-7.443,4.465-10.176
			C282.7,3.441,284.237,2.956,285.918,3.068z"/>
		<path d="M241.049,16.408c-0.155-0.912-0.509-2.319-0.596-3.741c-0.066-1.09,0.215-2.202,0.312-3.305
			c0.052-0.601,0.27-1.34,0.014-1.785c-0.619-1.071,0.125-1.35,0.773-1.676c1.891-0.943,4.193,0.495,4.18,2.576
			c-0.024,3.937-0.093,7.874-0.063,11.811c0.031,4.554-1.317,8.641-3.943,12.333c-2.214,3.108-5.033,4.157-8.768,3.096
			c-0.745-0.21-1.471-0.828-1.991-1.438c-1.655-1.946-2.827-4.234-3.287-6.708c-0.916-4.915-1.187-9.892-0.727-14.901
			c0.167-1.801,0.042-3.63,0.133-5.444c0.054-1.066-0.239-2.342,1.219-2.836c1.708-0.578,3.539,0.712,3.512,2.595
			c-0.042,2.817-0.012,5.656-0.354,8.443c-0.426,3.435,0.188,6.716,0.776,10.045c0.289,1.622,0.439,3.236,1.537,4.585
			c0.824,1.012,1.962,1.159,2.865,0.228c2.062-2.129,3.443-4.634,3.847-7.587C240.744,20.795,240.834,18.872,241.049,16.408z"/>
		<path d="M19.668,14.718c0.029,3.629,0.027,3.649,2.928,3.865c0.983,0.072,1.979-0.03,2.963,0.028
			c2.22,0.132,3.523,1.723,2.689,3.36c-0.259,0.509-0.995,1.056-1.545,1.09c-2.007,0.13-4.031,0.118-6.043,0.022
			c-1.081-0.052-1.65,0.334-1.649,1.358c0.003,1.822,0.051,3.648,0.217,5.461c0.03,0.313,0.743,0.787,1.156,0.802
			c2.443,0.08,4.892,0.028,7.34,0.062c1.744,0.021,2.813,1.209,2.375,2.796c-0.17,0.619-0.77,1.333-1.352,1.579
			c-1.187,0.502-2.411,0.716-3.826,0.447c-2.025-0.381-4.146-0.264-6.227-0.348c-2.543-0.104-3.814-0.893-4.494-2.989
			c-0.184-0.565-0.025-1.243-0.033-1.867c-0.009-0.728-0.091-1.459-0.032-2.179c0.184-2.334,0.476-4.658,0.61-6.996
			c0.152-2.649,0.146-5.307,0.278-7.959c0.032-0.673,0.401-1.326,0.484-2.003c0.228-1.86,0.342-3.735,0.61-5.588
			c0.058-0.396,0.53-0.981,0.887-1.041c1.396-0.237,2.823-0.38,4.241-0.406c2.918-0.054,5.836-0.016,8.752-0.007
			c1.223,0.003,2.744,0.987,2.719,1.913c-0.033,1.254-0.802,2.114-2.027,2.369c-0.928,0.194-1.9,0.202-2.855,0.246
			c-2.244,0.102-4.49,0.147-6.731,0.295c-0.269,0.019-0.675,0.505-0.729,0.825C20.052,11.741,19.817,13.643,19.668,14.718z"/>
		<path d="M97.411,16.13c1.494-1.997,2.88-3.86,4.278-5.713c2.169-2.872,4.343-5.739,6.525-8.603
			c0.618-0.813,2.508-0.872,3.48-0.126c1.34,1.027,1.724,2.305,0.891,3.36c-0.92,1.167-2,2.21-2.92,3.377
			c-2.601,3.301-5.451,6.461-7.612,10.033c-1.212,2.001-1.324,4.697-1.799,7.107c-0.361,1.827-0.537,3.693-0.74,5.549
			c-0.085,0.783-0.029,1.583-0.04,2.374c-0.02,1.231-0.006,2.462-0.079,3.687c-0.069,1.193-1.022,1.684-1.953,1.589
			c-0.777-0.082-1.77-0.575-2.183-1.204c-0.909-1.382-1.176-3.032-0.926-4.708c0.418-2.769,0.945-5.521,1.249-8.303
			c0.108-0.994-0.319-2.044-0.465-3.072c-0.365-2.521-1.99-4.398-3.351-6.371c-1.393-2.018-3.082-3.832-4.551-5.8
			c-0.574-0.771-0.986-1.697-1.298-2.611c-0.131-0.38,0.103-1.267,0.315-1.317c0.856-0.203,1.912-0.49,2.631-0.165
			c1.921,0.864,3.185,2.538,4.301,4.298C94.55,11.696,95.957,13.866,97.411,16.13z"/>
		<path d="M326.138,32.78c0.342-3.56,0.701-6.409,0.867-9.271c0.258-4.395,0.381-8.797,0.564-13.194
			c0.083-1.919,0.132-3.839,0.271-5.753c0.093-1.287,0.913-1.621,2.092-1.385c2.581,0.519,3.364,1.746,2.964,4.656
			c-0.112,0.829-0.189,1.666-0.246,2.503c-0.281,4.011-0.598,8.021-0.807,12.038c-0.178,3.406-0.148,6.823-0.371,10.226
			c-0.099,1.506-0.05,3.148-2.022,3.92c-1.021,0.396-1.674-0.008-1.982-0.544C326.789,34.798,326.405,33.452,326.138,32.78z"/>
	</g>
</g>
<g id="HamburgerBG">
</g>
</svg>
