<?xml version="1.0" encoding="utf-8"?>
<!-- Generator: Adobe Illustrator 16.0.3, SVG Export Plug-In . SVG Version: 6.00 Build 0)  -->
<!DOCTYPE svg PUBLIC "-//W3C//DTD SVG 1.1//EN" "http://www.w3.org/Graphics/SVG/1.1/DTD/svg11.dtd">
<svg version="1.1" id="Layer_1" xmlns="http://www.w3.org/2000/svg" xmlns:xlink="http://www.w3.org/1999/xlink" x="0px" y="0px"
	 width="715px" height="715px" viewBox="0 0 715 715" enable-background="new 0 0 715 715" xml:space="preserve">
<path fill="none" d="M424.036,1.815c10.849-0.112,11.495,3.9,19,7c3.333,0.667,6.667,1.333,10,2c2.473,1.265,5.11,5.014,8,6
	c4.666,0.333,9.334,0.667,14,1c14.201,3.93,28.309,9.201,42.063,15.023c13.716,5.803,27.72,13.727,39.937,20.977
	c4.047,2.402,7.095,2.553,11,5c5.466,3.425,10.588,9.657,16,13c6.159,3.805,14.937,7.317,20.872,10.227
	c13.416,6.578,25.588,13.021,38.128,20.773c12.603,7.79,31.839,15.51,46,21c8.392,3.253,26.348,10.117,23,15
	c-5.504,10.656-12.468,25.4-18,36c-10.736,20.57-23.099,41.493-35,61c-5.631,9.229-9.423,29.913-18,30
	c-2.777-0.248-7.345-1.703-11-3c-16.024-5.687-23.521-13.368-47-8c-0.713,2.049,0.007,4.674,0,8
	c2.393,13.341,2.446,28.213,2.854,41.724c0.457,15.087,2.23,33.217,3.146,48.276c0,10.332,1,20.667,1,31
	c1.188,25.6,1.231,69.687,1,101.002c-0.333,9.999,0.333,20.001,0,30c-0.004,16.062-0.537,34.025,3,50c2.002,9.042,0.952,22.881,3,32
	c0,6.333,0,12.667,0,19c2.549,35.956,0.619,67.553-5,95c-0.667,1.548-1.333,2-2,2c-7.964,1.407-18.555-1.698-36-1
	c-27.664,0.333-55.336,0.667-83,1c-25.354,0.521-50.539,0-79,0c-15.114,0-33.416-0.158-47-1c-8.169-0.509-20.241,0.274-30,0
	c-8.999,0-20.001-1-29-1c-14.862,0-28.313,0.695-41-1c-10.153-1.358-23.394-0.494-32-1c-15.332,0-27.668-1-43-1
	c-1.863,0.13-11.936,0.081-15,0c-9.379-0.248-19.275,4.938-27,2c-3.209-18.769-7.849-43.044-9-56c-0.667-6.666-1.333-13.334-2-20
	c1.376-5.83,4.569-11.62,6-17c0-8.332,0-16.669,0-25c1.604-7.027,3.293-16.142,5-23c5.182-20.831-0.754-44.731,4-65
	c0.333-13.999,0.667-28.001,1-42c-0.293-1.351-1.626-5.104-1-8c3.69-17.075,0.996-36.073,1-56c0.003-16.654,0-30.229,0-48
	c0-7,0-14,0-21c-1.162-5.268,0.437-14.497-1-21c-1.448-6.554-3.771-19.813-3-27c1.333-6,2.667-12,4-18
	c-2.667-0.924-6.932-1.051-11-1c-4.192,2.747-10.583,1.39-16,3c-7.663,2.277-24.022,11.528-32,6c-5.335-2.041-12.717-24.703-16-31
	c-13.29-25.494-29.583-48.287-43-74c-3.09-5.921-15.013-18.683-12-26c4.694-7.612,19.424-10.059,28-14
	c9.247-4.249,19.099-11.368,28-16c7.68-3.996,14.168-4.919,22-9c4.892-2.549,10.173-8.072,15-11c3.667-1,7.333-2,11-3
	c12.283-6.892,25.404-13.854,37-22c5.8-4.075,10.311-11.082,16-15c3.668-2.526,8.103-2.641,12-5c6.133-3.712,13.068-9.107,20-12
	c21.096-8.805,41.788-12.394,65-19c16.791-4.779,17.932-10.771,27-11c6.34-0.16,17.755,7.888,34,11c11.332,0.333,22.668,0.667,34,1
	C398.559,17.449,416.107,2.216,424.036,1.815z"/>
</svg>
